<?xml version="1.0" encoding="UTF-8" standalone="no"?>
<svg
   xmlns:dc="http://purl.org/dc/elements/1.1/"
   xmlns:cc="http://creativecommons.org/ns#"
   xmlns:rdf="http://www.w3.org/1999/02/22-rdf-syntax-ns#"
   xmlns:svg="http://www.w3.org/2000/svg"
   xmlns="http://www.w3.org/2000/svg"
   version="1.1"
   x="0px"
   y="0px"
   viewBox="0 0 96 120"
   enable-background="new 0 0 96 96"
   xml:space="preserve"
   width="23"
   height="23">
   <path
     d="M46,33c5.172,0,6-21.78,6-22c0-3.308-2.691-6-6-6c-3.308,0-6,2.692-6,6C40,11.22,40.828,33,46,33z"
     fill="#333"/><path
     d="M18.052,64.58c1.016,0,2.02-0.26,2.916-0.756c0.192-0.1,18.804-11.444,16.296-15.952c-0.344-0.616-1.096-1.352-2.728-1.352  c-4.416,0-17.756,5.908-19.412,6.828c-2.892,1.604-3.928,5.269-2.32,8.164C13.864,63.4,15.872,64.58,18.052,64.58z"
      fill="#333"/><path
     d="M72.652,63.82c0.896,0.492,1.904,0.752,2.916,0.752c2.172,0,4.188-1.18,5.244-3.076c1.607-2.896,0.571-6.561-2.324-8.172  c-1.652-0.916-14.996-6.82-19.412-6.82c-1.624,0-2.385,0.74-2.729,1.356C53.844,52.368,72.452,63.712,72.652,63.82z"
      fill="#333"/><path
     d="M 48,87 48,48.632 C 50.324,47.804 52,45.6 52,43 c 0,-3.308 -2.691,-6 -6,-6 -3.308,0 -6,2.692 -6,6 0,2.6 1.676,4.804 4,5.632 L 44,87 C 27.069861,96.500977 23.810376,71.51668 1.7263398,90.368301 16.202518,97.433232 70.299928,92.094641 90.768529,92.094641 91.868529,92.094641 94,90.1 94,89 70.847626,87.723748 69.323471,80.568985 48,87 z"
      fill="#333"/></svg>
